<?xml version="1.0" encoding="UTF-8"?>
<!-- Generated by Pixelmator Pro 4.3 -->
<svg viewBox="0 0 512 512" xmlns="http://www.w3.org/2000/svg">
    <path id="Rectangle" fill="#ffffff" fill-rule="evenodd" stroke="none" d="M 0 330.5 C 0 397.302734 0 430.704102 14.025439 455.748352 C 23.937834 473.448181 38.551811 488.062164 56.251663 497.974548 C 81.295891 512 114.697258 512 181.5 512 L 330.5 512 C 397.302734 512 430.704102 512 455.748322 497.974548 C 473.448181 488.062164 488.062164 473.448181 497.974548 455.748352 C 512 430.704102 512 397.302734 512 330.5 L 512 181.5 C 512 114.697266 512 81.295898 497.974548 56.251678 C 488.062164 38.551819 473.448181 23.937836 455.748322 14.025452 C 430.704102 0 397.302734 0 330.5 0 L 181.5 0 C 114.697258 0 81.295891 0 56.251663 14.025452 C 38.551811 23.937836 23.937834 38.551819 14.025439 56.251678 C 0 81.295898 0 114.697266 0 181.5 Z"/>
    <path id="LiSA-26" fill="#000000" stroke="none" d="M 346.034851 340.460938 C 348.769257 339.835938 351.425476 339.367188 354.003601 339.054688 C 356.581757 338.742188 359.003601 338.585938 361.269226 338.585938 C 376.738068 338.585938 389.198883 343.546814 398.652039 353.46875 C 408.105225 363.156311 412.831726 376.203064 412.831726 392.609375 C 412.831726 411.593842 406.386475 427.687439 393.495789 440.890625 C 380.683228 454.015686 365.05838 460.578125 346.620789 460.578125 C 329.667572 460.578125 315.488037 454.992249 304.081726 443.820313 C 292.831665 432.726501 287.206726 418.703217 287.206726 401.75 C 287.206726 385.265564 295.019165 366.39856 310.644226 345.148438 L 366.894226 269.210938 L 387.167664 285.148438 Z M 313.222351 402.921875 C 313.222351 413.156311 316.269196 421.320282 322.362976 427.414063 C 328.456757 433.507843 336.581665 436.554688 346.737976 436.554688 C 358.066162 436.554688 367.558258 432.570343 375.214539 424.601563 C 382.948944 416.632782 386.816101 406.828186 386.816101 395.1875 C 386.816101 385.265564 383.652069 377.062531 377.323914 370.578125 C 371.073883 364.093719 363.066162 360.851563 353.300476 360.851563 C 342.28479 360.851563 332.870819 364.992126 325.058289 373.273438 C 317.167633 381.632874 313.222351 391.515564 313.222351 402.921875 Z M 114.649643 53.0625 L 95.54808 209.039063 L 146.759018 209.039063 L 143.712143 234 L 65.665268 234 L 87.930893 53.0625 Z M 263.703125 458 L 266.867188 433.039063 L 202.0625 433.039063 L 243.898438 387.6875 C 250.769867 380.109344 256.4534 373.546906 260.945618 368 C 265.437836 362.453094 268.699524 357.765625 270.730774 353.9375 C 274.871429 346.281189 276.941711 337.296936 276.941711 326.984375 C 276.941711 311.124939 271.941742 298.390686 261.941711 288.78125 C 252.019775 279.093689 238.738678 274.25 222.097961 274.25 C 200.691605 274.25 184.871445 281.593689 174.637024 296.28125 C 168.543243 304.953186 164.832336 318.195221 163.504211 336.007813 L 188.9375 336.007813 C 189.480774 329.445282 190.535446 323.800812 192.097961 319.074219 C 193.660461 314.347626 195.75029 310.460938 198.367493 307.414063 C 200.984695 304.367188 204.207306 302.121094 208.035461 300.675781 C 211.863586 299.230469 216.316681 298.507813 221.394836 298.507813 C 225.926117 298.507813 230.027618 299.171875 233.699524 300.5 C 237.371399 301.828125 240.476837 303.742188 243.01593 306.242188 C 245.554993 308.742188 247.508118 311.769531 248.875305 315.324219 C 250.242493 318.878906 250.926086 322.882813 250.926086 327.335938 C 250.926086 334.601593 249.285461 340.851532 246.004211 346.085938 C 244.285461 348.820313 241.199554 352.843719 236.746399 358.15625 C 232.293243 363.468781 226.316742 370.226501 218.816711 378.429688 L 146.632813 458 Z M 144.804688 349.835938 L 158.75 277.0625 L 129.6875 277.0625 L 125.703125 349.835938 Z M 356.382813 191.460938 L 426.578125 191.460938 L 439.703125 234 L 467.710938 234 L 405.25 40.171875 L 305.171875 234 L 334.351563 234 Z M 254.359375 237.515625 C 271.000092 237.515625 284.398376 232.671936 294.554688 222.984375 C 304.867249 213.296814 310.023438 200.640717 310.023438 185.015625 C 310.023438 172.984314 307.367218 163.257843 302.054688 155.835938 C 296.820282 148.492157 286.429779 140.289093 270.882813 131.226563 C 265.648407 128.101532 261.292999 125.25 257.816406 122.671875 C 254.339813 120.09375 251.703125 117.789063 249.90625 115.757813 C 246.312469 111.460907 244.515625 106.343781 244.515625 100.40625 C 244.515625 92.984344 247.132782 86.812531 252.367188 81.890625 C 257.601593 76.968719 264.203094 74.507813 272.171875 74.507813 C 283.187561 74.507813 292.953094 80.757751 301.46875 93.257813 L 319.398438 76.148438 C 311.742157 66.382751 304.281281 59.468781 297.015625 55.40625 C 289.906219 51.343719 281.312561 49.3125 271.234375 49.3125 C 255.765533 49.3125 242.953186 54.156189 232.796875 63.84375 C 222.640564 73.453186 217.5625 85.562439 217.5625 100.171875 C 217.5625 111.109436 220.140594 120.210907 225.296875 127.476563 C 230.687531 134.742218 240.179626 142.398407 253.773438 150.445313 C 259.710968 153.960968 264.613251 157.125 268.480469 159.9375 C 272.347687 162.75 275.257813 165.289063 277.210938 167.554688 C 281.117218 171.929718 283.070313 177.281219 283.070313 183.609375 C 283.070313 192.828186 280.394562 199.937469 275.042969 204.9375 C 269.691376 209.937531 262.289124 212.4375 252.835938 212.4375 C 244.320282 212.4375 237.406281 210.601593 232.09375 206.929688 C 226.781219 203.257782 221.351593 196.539124 215.804688 186.773438 L 195.414063 200.601563 C 199.164078 207.242218 203.070297 212.886688 207.132813 217.535156 C 211.195343 222.183624 215.570282 225.953125 220.257813 228.84375 C 229.554749 234.625031 240.921814 237.515625 254.359375 237.515625 Z M 184.563095 84.9375 C 188.391251 84.9375 191.672455 83.570313 194.406845 80.835938 C 197.141235 78.101563 198.508408 74.859406 198.508408 71.109375 C 198.508408 67.203094 197.06311 63.84375 194.17247 61.03125 C 191.359955 58.140625 188.039688 56.695313 184.211533 56.695313 C 180.461517 56.695313 177.21936 58.0625 174.48497 60.796875 C 171.82872 63.453125 170.500595 66.695282 170.500595 70.523438 C 170.500595 74.351593 171.867767 77.75 174.602158 80.71875 C 177.414673 83.53125 180.734955 84.9375 184.563095 84.9375 Z M 399.625 103.921875 L 419.078125 168.257813 L 367.984375 168.257813 Z M 176.828125 234 L 190.421875 123.609375 L 164.523438 123.609375 L 150.929688 234 Z"/>
</svg>
